<svg width="30" height="30" viewBox="0 0 30 30" xmlns="http://www.w3.org/2000/svg" xmlns:sketch="http://www.bohemiancoding.com/sketch/ns"><title>social_twitter</title><desc>Created with Sketch.</desc><path d="M15 0c-8.284 0-15 6.716-15 15 0 8.285 6.716 15 15 15 8.285 0 15-6.715 15-15 0-8.284-6.715-15-15-15zm6.101 12.288l.008.383c0 3.903-2.972 8.405-8.406 8.405-1.668 0-3.22-.489-4.528-1.328.231.027.466.042.704.042 1.385 0 2.658-.473 3.67-1.266-1.292-.023-2.385-.877-2.759-2.051.18.034.365.053.556.053.269 0 .531-.036.778-.104-1.351-.271-2.37-1.466-2.37-2.896l.001-.038c.398.222.853.354 1.337.371-.793-.531-1.314-1.434-1.314-2.46 0-.541.145-1.048.4-1.485 1.457 1.788 3.634 2.964 6.089 3.088-.051-.217-.076-.442-.076-.674 0-1.631 1.322-2.954 2.954-2.954.85 0 1.617.359 2.156.933.674-.133 1.305-.379 1.877-.718-.222.69-.69 1.269-1.3 1.635.598-.071 1.167-.23 1.697-.465-.397.591-.897 1.113-1.475 1.529z" sketch:type="MSShapeGroup" fill="#68CDEF"/></svg>
